<svg xmlns="http://www.w3.org/2000/svg" viewBox="0 0 200 60" width="200" height="60">
  <!-- Pen device -->
  <rect x="5" y="18" width="18" height="30" rx="4" fill="#43a047"/>
  <polygon points="5,48 23,48 14,58" fill="#2e7d32"/>
  <text x="14" y="14" font-family="sans-serif" font-size="8" text-anchor="middle" fill="#555">Pen</text>

  <!-- Arrow 1 -->
  <path d="M28 33h28" stroke="#90a4ae" stroke-width="2.5" stroke-linecap="round"/>
  <path d="M50 27l8 6-8 6" fill="none" stroke="#90a4ae" stroke-width="2.5" stroke-linecap="round" stroke-linejoin="round"/>

  <!-- Raspberry Pi -->
  <rect x="61" y="18" width="34" height="24" rx="5" fill="#c62828"/>
  <circle cx="68" cy="26" r="3" fill="#ef9a9a"/>
  <circle cx="78" cy="26" r="3" fill="#ef9a9a"/>
  <rect x="65" y="32" width="24" height="4" rx="2" fill="#b71c1c"/>
  <text x="78" y="14" font-family="sans-serif" font-size="8" text-anchor="middle" fill="#555">Bridge</text>

  <!-- Arrow 2 -->
  <path d="M100 33h28" stroke="#90a4ae" stroke-width="2.5" stroke-linecap="round"/>
  <path d="M122 27l8 6-8 6" fill="none" stroke="#90a4ae" stroke-width="2.5" stroke-linecap="round" stroke-linejoin="round"/>

  <!-- PC -->
  <rect x="135" y="16" width="40" height="26" rx="3" fill="#37474f"/>
  <rect x="138" y="19" width="34" height="20" rx="2" fill="#546e7a"/>
  <rect x="148" y="44" width="14" height="4" rx="1" fill="#37474f"/>
  <rect x="143" y="48" width="24" height="3" rx="1" fill="#37474f"/>
  <text x="155" y="14" font-family="sans-serif" font-size="8" text-anchor="middle" fill="#555">PC</text>
</svg>
